<mxfile host="app.diagrams.net" modified="2021-09-21T12:58:36.782Z" agent="5.0 (Windows NT 10.0; Win64; x64) AppleWebKit/537.36 (KHTML, like Gecko) Chrome/93.0.4577.82 Safari/537.36" etag="pgUV0CgWez-JP0aDbCk4" version="15.2.9" type="github">
  <diagram id="ahGj_e_AhfulbQFsEKMv" name="Page-1">
    <mxGraphModel dx="1021" dy="612" grid="1" gridSize="10" guides="1" tooltips="1" connect="1" arrows="1" fold="1" page="1" pageScale="1" pageWidth="850" pageHeight="1100" background="none" math="0" shadow="0">
      <root>
        <mxCell id="0" />
        <mxCell id="1" parent="0" />
        <mxCell id="IEJ9uhLLjxrA9NDkAbuZ-2" value="&lt;span class=&quot;JsGRdQ&quot; style=&quot;text-align: left&quot;&gt;&lt;font&gt;&lt;font color=&quot;#595454&quot;&gt;&lt;span style=&quot;font-size: 18px&quot;&gt;&lt;b&gt;Deploying Netflix Application on AWS&amp;nbsp;&amp;nbsp;&lt;/b&gt;&lt;/span&gt;&lt;/font&gt;&lt;br&gt;4 EC2 Instances&amp;nbsp;&lt;br&gt;&lt;/font&gt;&lt;/span&gt;&lt;div&gt;2 in Public Subnet&lt;/div&gt;&lt;div&gt;2 in Private Subnet&lt;/div&gt;&lt;div&gt;&lt;br&gt;&lt;/div&gt;" style="text;html=1;strokeColor=none;fillColor=none;align=center;verticalAlign=middle;whiteSpace=wrap;rounded=0;" parent="1" vertex="1">
          <mxGeometry x="40" y="40" width="342.27" height="70" as="geometry" />
        </mxCell>
        <mxCell id="IEJ9uhLLjxrA9NDkAbuZ-3" value="AWS Cloud" style="sketch=0;outlineConnect=0;gradientColor=none;html=1;whiteSpace=wrap;fontSize=12;fontStyle=0;shape=mxgraph.aws4.group;grIcon=mxgraph.aws4.group_aws_cloud;strokeColor=#AAB7B8;fillColor=none;verticalAlign=top;align=left;spacingLeft=30;fontColor=#AAB7B8;dashed=0;" parent="1" vertex="1">
          <mxGeometry x="40" y="120" width="760" height="480" as="geometry" />
        </mxCell>
        <mxCell id="IEJ9uhLLjxrA9NDkAbuZ-4" value="Region" style="sketch=0;outlineConnect=0;gradientColor=none;html=1;whiteSpace=wrap;fontSize=12;fontStyle=0;shape=mxgraph.aws4.group;grIcon=mxgraph.aws4.group_region;strokeColor=#879196;fillColor=none;verticalAlign=top;align=left;spacingLeft=30;fontColor=#879196;dashed=1;" parent="1" vertex="1">
          <mxGeometry x="80" y="160" width="680" height="400" as="geometry" />
        </mxCell>
        <mxCell id="IEJ9uhLLjxrA9NDkAbuZ-5" value="ap-south-1" style="text;html=1;strokeColor=none;fillColor=none;align=center;verticalAlign=middle;whiteSpace=wrap;rounded=0;" parent="1" vertex="1">
          <mxGeometry x="700" y="540" width="60" height="20" as="geometry" />
        </mxCell>
        <mxCell id="IEJ9uhLLjxrA9NDkAbuZ-6" value="Availability zone" style="sketch=0;outlineConnect=0;gradientColor=none;html=1;whiteSpace=wrap;fontSize=12;fontStyle=0;shape=mxgraph.aws4.group;grIcon=mxgraph.aws4.group_availability_zone;strokeColor=#545B64;fillColor=none;verticalAlign=top;align=left;spacingLeft=30;fontColor=#545B64;dashed=1;" parent="1" vertex="1">
          <mxGeometry x="160" y="240" width="240" height="240" as="geometry" />
        </mxCell>
        <mxCell id="IEJ9uhLLjxrA9NDkAbuZ-7" value="Availability zone" style="sketch=0;outlineConnect=0;gradientColor=none;html=1;whiteSpace=wrap;fontSize=12;fontStyle=0;shape=mxgraph.aws4.group;grIcon=mxgraph.aws4.group_availability_zone;strokeColor=#545B64;fillColor=none;verticalAlign=top;align=left;spacingLeft=30;fontColor=#545B64;dashed=1;" parent="1" vertex="1">
          <mxGeometry x="440" y="240" width="240" height="240" as="geometry" />
        </mxCell>
        <mxCell id="IEJ9uhLLjxrA9NDkAbuZ-8" value="ap-south-1a" style="text;html=1;strokeColor=none;fillColor=none;align=center;verticalAlign=middle;whiteSpace=wrap;rounded=0;" parent="1" vertex="1">
          <mxGeometry x="330" y="460" width="70" height="20" as="geometry" />
        </mxCell>
        <mxCell id="IEJ9uhLLjxrA9NDkAbuZ-9" value="ap-south-1b" style="text;html=1;strokeColor=none;fillColor=none;align=center;verticalAlign=middle;whiteSpace=wrap;rounded=0;" parent="1" vertex="1">
          <mxGeometry x="610" y="460" width="70" height="20" as="geometry" />
        </mxCell>
        <mxCell id="IEJ9uhLLjxrA9NDkAbuZ-10" value="VPC" style="sketch=0;outlineConnect=0;gradientColor=none;html=1;whiteSpace=wrap;fontSize=12;fontStyle=0;shape=mxgraph.aws4.group;grIcon=mxgraph.aws4.group_vpc;strokeColor=#879196;fillColor=none;verticalAlign=top;align=left;spacingLeft=30;fontColor=#879196;dashed=0;" parent="1" vertex="1">
          <mxGeometry x="120" y="200" width="600" height="320" as="geometry" />
        </mxCell>
        <mxCell id="IEJ9uhLLjxrA9NDkAbuZ-13" value="10.1.0.0/16" style="text;html=1;strokeColor=none;fillColor=none;align=center;verticalAlign=middle;whiteSpace=wrap;rounded=0;" parent="1" vertex="1">
          <mxGeometry x="650" y="500" width="70" height="20" as="geometry" />
        </mxCell>
        <mxCell id="IEJ9uhLLjxrA9NDkAbuZ-36" value="&lt;font&gt;&lt;font style=&quot;font-size: 14px&quot;&gt;Public Route Table&lt;/font&gt;&lt;br&gt;&amp;nbsp; &amp;nbsp; &amp;nbsp; Destination&amp;nbsp; &amp;nbsp; &amp;nbsp; &amp;nbsp; &amp;nbsp; Target&amp;nbsp; &amp;nbsp; &amp;nbsp;&lt;br&gt;&lt;span style=&quot;font-size: 12px ; color: rgb(22 , 25 , 31) ; font-family: &amp;#34;amazon ember&amp;#34; , &amp;#34;helvetica neue&amp;#34; , &amp;#34;roboto&amp;#34; , &amp;#34;arial&amp;#34; , sans-serif ; background-color: rgb(255 , 255 , 255)&quot;&gt;&lt;font style=&quot;font-size: 12px&quot;&gt;10.1.0.0/16&amp;nbsp; &amp;nbsp; &amp;nbsp; &amp;nbsp; &amp;nbsp; &amp;nbsp; Local&lt;br&gt;&lt;/font&gt;&lt;/span&gt;&lt;span style=&quot;color: rgb(22 , 25 , 31) ; font-family: &amp;#34;amazon ember&amp;#34; , &amp;#34;helvetica neue&amp;#34; , &amp;#34;roboto&amp;#34; , &amp;#34;arial&amp;#34; , sans-serif ; background-color: rgb(250 , 250 , 250)&quot;&gt;&lt;font style=&quot;font-size: 12px&quot;&gt;0.0.0.0/0&amp;nbsp; &amp;nbsp; &amp;nbsp; &amp;nbsp; &amp;nbsp; &amp;nbsp; &amp;nbsp; &amp;nbsp;IGW&lt;/font&gt;&lt;/span&gt;&lt;span style=&quot;font-size: 12px ; color: rgb(22 , 25 , 31) ; font-family: &amp;#34;amazon ember&amp;#34; , &amp;#34;helvetica neue&amp;#34; , &amp;#34;roboto&amp;#34; , &amp;#34;arial&amp;#34; , sans-serif ; background-color: rgb(255 , 255 , 255)&quot;&gt;&lt;font style=&quot;font-size: 12px&quot;&gt;&lt;br&gt;&lt;/font&gt;&lt;/span&gt;&lt;/font&gt;" style="outlineConnect=0;gradientColor=none;html=1;whiteSpace=wrap;fontSize=12;fontStyle=0;strokeColor=#879196;fillColor=none;verticalAlign=top;align=center;fontColor=#879196;dashed=1;spacingTop=3;" parent="1" vertex="1">
          <mxGeometry x="370.01" y="30" width="208.37" height="80" as="geometry" />
        </mxCell>
        <mxCell id="IEJ9uhLLjxrA9NDkAbuZ-37" value="&lt;font&gt;&lt;font style=&quot;font-size: 14px&quot;&gt;Private Route Table&lt;/font&gt;&lt;br&gt;&amp;nbsp; &amp;nbsp; &amp;nbsp; Destination&amp;nbsp; &amp;nbsp; &amp;nbsp; &amp;nbsp; &amp;nbsp; Target&amp;nbsp; &amp;nbsp; &amp;nbsp;&lt;br&gt;&lt;span style=&quot;font-size: 12px ; color: rgb(22 , 25 , 31) ; font-family: &amp;#34;amazon ember&amp;#34; , &amp;#34;helvetica neue&amp;#34; , &amp;#34;roboto&amp;#34; , &amp;#34;arial&amp;#34; , sans-serif ; background-color: rgb(255 , 255 , 255)&quot;&gt;&lt;font style=&quot;font-size: 12px&quot;&gt;10.1.0.0/16&amp;nbsp; &amp;nbsp; &amp;nbsp; &amp;nbsp; &amp;nbsp; &amp;nbsp; Local&lt;/font&gt;&lt;/span&gt;&lt;/font&gt;" style="outlineConnect=0;gradientColor=none;html=1;whiteSpace=wrap;fontSize=12;fontStyle=0;strokeColor=#879196;fillColor=none;verticalAlign=top;align=center;fontColor=#879196;dashed=1;spacingTop=3;" parent="1" vertex="1">
          <mxGeometry x="589.19" y="30" width="210.81" height="80" as="geometry" />
        </mxCell>
        <mxCell id="IEJ9uhLLjxrA9NDkAbuZ-38" value="" style="sketch=0;outlineConnect=0;fontColor=#232F3E;gradientColor=none;fillColor=#A166FF;strokeColor=none;dashed=0;verticalLabelPosition=bottom;verticalAlign=top;align=center;html=1;fontSize=12;fontStyle=0;aspect=fixed;pointerEvents=1;shape=mxgraph.aws4.internet_gateway;" parent="1" vertex="1">
          <mxGeometry x="100" y="500" width="38" height="38" as="geometry" />
        </mxCell>
        <mxCell id="rDrHwVuZuPK__rkkWy3e-1" value="Public subnet" style="points=[[0,0],[0.25,0],[0.5,0],[0.75,0],[1,0],[1,0.25],[1,0.5],[1,0.75],[1,1],[0.75,1],[0.5,1],[0.25,1],[0,1],[0,0.75],[0,0.5],[0,0.25]];outlineConnect=0;gradientColor=none;html=1;whiteSpace=wrap;fontSize=12;fontStyle=0;shape=mxgraph.aws4.group;grIcon=mxgraph.aws4.group_security_group;grStroke=0;strokeColor=#248814;fillColor=#E9F3E6;verticalAlign=top;align=left;spacingLeft=30;fontColor=#248814;dashed=0;" vertex="1" parent="1">
          <mxGeometry x="180.41000000000003" y="290" width="90.81" height="150" as="geometry" />
        </mxCell>
        <mxCell id="rDrHwVuZuPK__rkkWy3e-4" value="10.1.1.230" style="text;html=1;strokeColor=none;fillColor=none;align=center;verticalAlign=middle;whiteSpace=wrap;rounded=0;" vertex="1" parent="1">
          <mxGeometry x="198.32" y="320" width="55" height="20" as="geometry" />
        </mxCell>
        <mxCell id="rDrHwVuZuPK__rkkWy3e-5" value="" style="outlineConnect=0;dashed=0;verticalLabelPosition=bottom;verticalAlign=top;align=center;html=1;shape=mxgraph.aws3.ec2;fillColor=#F58534;gradientColor=none;" vertex="1" parent="1">
          <mxGeometry x="200.85999999999999" y="335" width="49.93" height="55.75" as="geometry" />
        </mxCell>
        <mxCell id="rDrHwVuZuPK__rkkWy3e-6" value="Linux Proxy" style="text;html=1;strokeColor=none;fillColor=none;align=center;verticalAlign=middle;whiteSpace=wrap;rounded=0;" vertex="1" parent="1">
          <mxGeometry x="190.01" y="390.75" width="71.62" height="20" as="geometry" />
        </mxCell>
        <mxCell id="rDrHwVuZuPK__rkkWy3e-7" value="10.1.1.0/16" style="text;html=1;strokeColor=none;fillColor=none;align=center;verticalAlign=middle;whiteSpace=wrap;rounded=0;" vertex="1" parent="1">
          <mxGeometry x="190.82" y="420.75" width="70" height="20" as="geometry" />
        </mxCell>
        <mxCell id="rDrHwVuZuPK__rkkWy3e-8" value="Public subnet" style="points=[[0,0],[0.25,0],[0.5,0],[0.75,0],[1,0],[1,0.25],[1,0.5],[1,0.75],[1,1],[0.75,1],[0.5,1],[0.25,1],[0,1],[0,0.75],[0,0.5],[0,0.25]];outlineConnect=0;gradientColor=none;html=1;whiteSpace=wrap;fontSize=12;fontStyle=0;shape=mxgraph.aws4.group;grIcon=mxgraph.aws4.group_security_group;grStroke=0;strokeColor=#248814;fillColor=#E9F3E6;verticalAlign=top;align=left;spacingLeft=30;fontColor=#248814;dashed=0;" vertex="1" parent="1">
          <mxGeometry x="459.19" y="290.75" width="90.81" height="150" as="geometry" />
        </mxCell>
        <mxCell id="rDrHwVuZuPK__rkkWy3e-10" value="" style="outlineConnect=0;dashed=0;verticalLabelPosition=bottom;verticalAlign=top;align=center;html=1;shape=mxgraph.aws3.ec2;fillColor=#F58534;gradientColor=none;" vertex="1" parent="1">
          <mxGeometry x="479.63" y="337.12" width="49.93" height="55.75" as="geometry" />
        </mxCell>
        <mxCell id="rDrHwVuZuPK__rkkWy3e-12" value="10.1.2.0/16" style="text;html=1;strokeColor=none;fillColor=none;align=center;verticalAlign=middle;whiteSpace=wrap;rounded=0;" vertex="1" parent="1">
          <mxGeometry x="469.6" y="420" width="70" height="20" as="geometry" />
        </mxCell>
        <mxCell id="rDrHwVuZuPK__rkkWy3e-13" value="Private subnet" style="points=[[0,0],[0.25,0],[0.5,0],[0.75,0],[1,0],[1,0.25],[1,0.5],[1,0.75],[1,1],[0.75,1],[0.5,1],[0.25,1],[0,1],[0,0.75],[0,0.5],[0,0.25]];outlineConnect=0;gradientColor=none;html=1;whiteSpace=wrap;fontSize=12;fontStyle=0;shape=mxgraph.aws4.group;grIcon=mxgraph.aws4.group_security_group;grStroke=0;strokeColor=#147EBA;fillColor=#E6F2F8;verticalAlign=top;align=left;spacingLeft=30;fontColor=#147EBA;dashed=0;" vertex="1" parent="1">
          <mxGeometry x="290" y="291.13" width="88.37" height="149.25" as="geometry" />
        </mxCell>
        <mxCell id="rDrHwVuZuPK__rkkWy3e-23" value="&lt;span style=&quot;font-family: &amp;#34;times new roman&amp;#34;&quot;&gt;&lt;font style=&quot;font-size: 12px&quot;&gt;10.1.3.185&lt;/font&gt;&lt;/span&gt;" style="text;html=1;strokeColor=none;fillColor=none;align=center;verticalAlign=middle;whiteSpace=wrap;rounded=0;" vertex="1" parent="1">
          <mxGeometry x="304.01000000000005" y="320" width="67.9" height="20" as="geometry" />
        </mxCell>
        <mxCell id="rDrHwVuZuPK__rkkWy3e-25" value="Netflix-Home" style="text;html=1;strokeColor=none;fillColor=none;align=center;verticalAlign=middle;whiteSpace=wrap;rounded=0;" vertex="1" parent="1">
          <mxGeometry x="297.56" y="390.75" width="80.81" height="20" as="geometry" />
        </mxCell>
        <mxCell id="rDrHwVuZuPK__rkkWy3e-26" value="10.1.3.0/16" style="text;html=1;strokeColor=none;fillColor=none;align=center;verticalAlign=middle;whiteSpace=wrap;rounded=0;" vertex="1" parent="1">
          <mxGeometry x="298.38" y="420.75" width="70" height="20" as="geometry" />
        </mxCell>
        <mxCell id="rDrHwVuZuPK__rkkWy3e-27" value="" style="outlineConnect=0;dashed=0;verticalLabelPosition=bottom;verticalAlign=top;align=center;html=1;shape=mxgraph.aws3.ec2;fillColor=#F58534;gradientColor=none;" vertex="1" parent="1">
          <mxGeometry x="309.22" y="334.25" width="49.93" height="55.75" as="geometry" />
        </mxCell>
        <mxCell id="rDrHwVuZuPK__rkkWy3e-28" value="Private subnet" style="points=[[0,0],[0.25,0],[0.5,0],[0.75,0],[1,0],[1,0.25],[1,0.5],[1,0.75],[1,1],[0.75,1],[0.5,1],[0.25,1],[0,1],[0,0.75],[0,0.5],[0,0.25]];outlineConnect=0;gradientColor=none;html=1;whiteSpace=wrap;fontSize=12;fontStyle=0;shape=mxgraph.aws4.group;grIcon=mxgraph.aws4.group_security_group;grStroke=0;strokeColor=#147EBA;fillColor=#E6F2F8;verticalAlign=top;align=left;spacingLeft=30;fontColor=#147EBA;dashed=0;" vertex="1" parent="1">
          <mxGeometry x="570" y="290.38" width="88.37" height="149.25" as="geometry" />
        </mxCell>
        <mxCell id="rDrHwVuZuPK__rkkWy3e-29" value="&lt;span style=&quot;font-family: &amp;#34;times new roman&amp;#34;&quot;&gt;&lt;font style=&quot;font-size: 12px&quot;&gt;10.1.4.213&lt;/font&gt;&lt;/span&gt;" style="text;html=1;strokeColor=none;fillColor=none;align=center;verticalAlign=middle;whiteSpace=wrap;rounded=0;" vertex="1" parent="1">
          <mxGeometry x="584.01" y="319.25" width="67.9" height="20" as="geometry" />
        </mxCell>
        <mxCell id="rDrHwVuZuPK__rkkWy3e-30" value="" style="outlineConnect=0;dashed=0;verticalLabelPosition=bottom;verticalAlign=top;align=center;html=1;shape=mxgraph.aws3.ec2;fillColor=#F58534;gradientColor=none;" vertex="1" parent="1">
          <mxGeometry x="589.22" y="333.5" width="49.93" height="55.75" as="geometry" />
        </mxCell>
        <mxCell id="rDrHwVuZuPK__rkkWy3e-31" value="Netflix-Stream" style="text;html=1;strokeColor=none;fillColor=none;align=center;verticalAlign=middle;whiteSpace=wrap;rounded=0;" vertex="1" parent="1">
          <mxGeometry x="577.56" y="390" width="80.81" height="20" as="geometry" />
        </mxCell>
        <mxCell id="rDrHwVuZuPK__rkkWy3e-32" value="10.1.4.0/16" style="text;html=1;strokeColor=none;fillColor=none;align=center;verticalAlign=middle;whiteSpace=wrap;rounded=0;" vertex="1" parent="1">
          <mxGeometry x="578.3800000000001" y="420" width="70" height="20" as="geometry" />
        </mxCell>
      </root>
    </mxGraphModel>
  </diagram>
</mxfile>
